<?xml version="1.0" encoding="UTF-8"?>
<!-- Generated by Pixelmator Pro 3.5.7 -->
<svg width="35" height="28" viewBox="0 0 35 28" xmlns="http://www.w3.org/2000/svg">
    <path id="Atom" fill="#0f68b8" fill-rule="evenodd" stroke="none" d="M 25.976524 14.242699 C 28.870676 16.939129 30.283091 19.57584 29.390894 21.121349 C 28.498695 22.666861 25.520615 22.741726 21.738422 21.583658 C 20.850382 25.438475 19.284611 28 17.5 28 C 15.715389 28 14.148659 25.439331 13.260512 21.583981 C 9.478852 22.741726 6.501305 22.666645 5.609107 21.121349 C 4.716909 19.576054 6.129112 16.939236 9.023476 14.242699 C 6.129324 11.546268 4.716909 8.909559 5.609107 7.364048 C 6.501305 5.818537 9.479386 5.743673 13.261577 6.901739 C 14.149619 3.046923 15.715389 0.485397 17.5 0.485397 C 19.284611 0.485397 20.851341 3.046066 21.739487 6.901417 C 25.521149 5.743673 28.498695 5.818752 29.390894 7.364048 C 30.283091 8.909344 28.870888 11.546162 25.976524 14.242699 Z M 28.467237 20.58812 C 29.152754 19.400833 27.831522 17.2307 25.229469 14.911689 C 24.329168 15.684629 23.386446 16.406746 22.405704 17.074677 C 22.317629 18.258186 22.16357 19.435856 21.944248 20.602196 C 25.253147 21.696064 27.781824 21.775299 28.467237 20.58812 Z M 13.713223 10.675932 C 14.129211 10.41337 14.556079 10.155357 14.993825 9.901897 C 15.432352 9.64872 15.86992 9.409513 16.305567 9.180441 C 15.523536 8.819017 14.760059 8.498972 14.026547 8.225107 C 13.897188 8.997646 13.791287 9.817541 13.713223 10.675932 Z M 15.527054 10.825235 C 14.864143 11.208023 14.227362 11.599768 13.616709 12.000473 C 13.576398 12.728862 13.554108 13.477195 13.554108 14.242699 C 13.554108 15.008203 13.57629 15.75707 13.616709 16.484715 C 14.227149 16.88378 14.863931 17.275524 15.527054 17.659948 C 16.189964 18.042736 16.847612 18.398222 17.5 18.726406 C 18.150753 18.397297 18.808403 18.041811 19.472946 17.659948 C 20.135857 17.277161 20.772638 16.885416 21.383291 16.484715 C 21.423601 15.75707 21.445892 15.008203 21.445892 14.242699 C 21.445892 13.477195 21.42371 12.728328 21.383291 12.000684 C 20.77285 11.601618 20.13607 11.209873 19.472946 10.825449 C 18.810036 10.442661 18.152388 10.087175 17.5 9.758991 C 16.849247 10.087887 16.191597 10.443375 15.527054 10.825449 Z M 12.517192 12.746778 C 11.813329 13.243429 11.156179 13.744984 10.551923 14.243444 C 11.155857 14.741693 11.814823 15.242822 12.518682 15.739258 C 12.499275 15.247407 12.48765 14.748947 12.48765 14.242699 C 12.48765 13.73645 12.498315 13.238309 12.517192 12.746993 Z M 21.286777 17.809252 C 20.870789 18.071814 20.443922 18.329824 20.006174 18.583286 C 19.567648 18.836466 19.130081 19.07567 18.694433 19.304747 C 19.476465 19.666168 20.239941 19.98621 20.973454 20.260078 C 21.102812 19.487751 21.208712 18.667856 21.286777 17.809467 Z M 22.482809 15.738194 C 23.18667 15.241543 23.843821 14.739987 24.448076 14.241528 C 23.844143 13.743276 23.185177 13.242149 22.481318 12.745714 C 22.500725 13.237776 22.51235 13.736238 22.51235 14.242484 C 22.51235 14.748733 22.501684 15.247088 22.482809 15.738405 Z M 17.5 26.933542 C 18.870718 26.933542 20.076988 24.683317 20.78405 21.270653 C 19.66398 20.877104 18.566738 20.421375 17.497442 19.905588 C 16.42927 20.420967 15.333328 20.876686 14.214671 21.270653 C 14.921945 24.68417 16.129068 26.933542 17.5 26.933542 Z M 16.303434 19.304958 C 15.86832 19.076168 15.431784 18.835682 14.993825 18.5835 C 14.555866 18.33132 14.129284 18.073521 13.714076 17.810104 C 13.79214 18.667326 13.895375 19.489244 14.025269 20.260824 C 14.75835 19.987171 15.522041 19.666061 16.303434 19.304958 Z M 6.532763 20.58812 C 7.218072 21.775196 9.745893 21.696171 13.05458 20.60252 C 12.836501 19.436508 12.683406 18.259277 12.596001 17.076277 C 11.614826 16.408192 10.671679 15.685896 9.770956 14.912753 C 7.169546 17.231339 5.847351 19.401047 6.532763 20.58812 Z M 6.532763 7.897278 C 5.847247 9.084564 7.168478 11.254698 9.77053 13.573709 C 10.670832 12.800768 11.613554 12.07865 12.594296 11.410723 C 12.682371 10.227211 12.83643 9.049541 13.055752 7.883202 C 9.746853 6.789333 7.218176 6.710098 6.532763 7.897278 Z M 17.5 1.551855 C 16.129282 1.551855 14.923012 3.80208 14.21595 7.214745 C 15.33602 7.608294 16.433262 8.064022 17.502558 8.579809 C 18.57073 8.064432 19.666672 7.608711 20.785328 7.214745 C 20.078056 3.801228 18.870932 1.551855 17.5 1.551855 Z M 18.696566 9.180441 C 19.13168 9.409229 19.568216 9.649715 20.006174 9.901897 C 20.444134 10.154079 20.870718 10.411877 21.285925 10.675293 C 21.207859 9.818071 21.104626 8.996153 20.974731 8.224573 C 20.24165 8.498226 19.477959 8.819336 18.696566 9.180441 Z M 28.467237 7.897278 C 27.781929 6.710201 25.254107 6.789227 21.945419 7.882879 C 22.1635 9.048891 22.316595 10.22612 22.403999 11.409121 C 23.385174 12.077206 24.328321 12.799502 25.229044 13.572645 C 27.830454 11.254061 29.152649 9.084352 28.467237 7.897278 Z M 17.5 15.842385 C 16.616518 15.842385 15.900313 15.126181 15.900313 14.242699 C 15.900313 13.359217 16.616518 12.643013 17.5 12.643013 C 18.383482 12.643013 19.099686 13.359217 19.099686 14.242699 C 19.099686 15.126181 18.383482 15.842385 17.5 15.842385 Z"/>
</svg>
