<?xml version="1.0" encoding="UTF-8"?>
<!-- Generated by Pixelmator Pro 3.5.7 -->
<svg width="168" height="43" viewBox="0 0 168 43" xmlns="http://www.w3.org/2000/svg">
    <g id="Group"/>
    <path id="Atom" fill="#0f68b8" fill-rule="evenodd" stroke="none" d="M 23.216209 21.931761 C 26.192198 24.704437 27.64455 27.415703 26.727123 29.004913 C 25.809698 30.594128 22.747408 30.671108 18.858271 29.480295 C 17.945118 33.444111 16.335073 36.078068 14.5 36.078068 C 12.664927 36.078068 11.053895 33.444992 10.140635 29.480627 C 6.252044 30.671108 3.190302 30.593906 2.272876 29.004913 C 1.35545 27.415924 2.807585 24.704548 5.783791 21.931761 C 2.807803 19.159086 1.35545 16.447821 2.272876 14.858608 C 3.190302 13.269396 6.252593 13.192413 10.14173 14.383226 C 11.054882 10.419411 12.664927 7.785454 14.5 7.785454 C 16.335073 7.785454 17.946104 10.41853 18.859364 14.382896 C 22.747955 13.192413 25.809698 13.269617 26.727123 14.858608 C 27.64455 16.447599 26.192415 19.158976 23.216209 21.931761 Z M 25.777349 28.456608 C 26.48225 27.235748 25.123659 25.004251 22.44803 22.619667 C 21.522272 23.414465 20.552893 24.157001 19.54442 24.843817 C 19.453854 26.060793 19.295439 27.271763 19.069916 28.471083 C 22.472378 29.595881 25.072556 29.677357 25.777349 28.456608 Z M 10.606147 18.264139 C 11.033898 17.994154 11.472836 17.728846 11.922959 17.468218 C 12.373887 17.207882 12.823827 16.96191 13.271792 16.72636 C 12.467649 16.354717 11.682584 16.025623 10.92833 15.744013 C 10.795314 16.538399 10.686419 17.381477 10.606147 18.264139 Z M 12.471266 18.417664 C 11.789611 18.811275 11.134824 19.214098 10.506904 19.626133 C 10.465453 20.375118 10.442533 21.144611 10.442533 21.931761 C 10.442533 22.71891 10.465343 23.488953 10.506904 24.237171 C 11.134605 24.647522 11.789392 25.050344 12.471266 25.445639 C 13.152921 25.839249 13.829165 26.204786 14.5 26.542252 C 15.169154 26.203836 15.845399 25.838299 16.528734 25.445639 C 17.210388 25.052027 17.865175 24.649204 18.493095 24.237171 C 18.534548 23.488953 18.557468 22.71891 18.557468 21.931761 C 18.557468 21.144611 18.534657 20.374569 18.493095 19.62635 C 17.865395 19.216 17.210608 18.813177 16.528734 18.417885 C 15.847079 18.024273 15.170835 17.658735 14.5 17.321272 C 13.830846 17.659468 13.154601 18.025005 12.471266 18.417885 Z M 9.376296 20.393541 C 8.652531 20.904236 7.976799 21.419973 7.355457 21.932528 C 7.976468 22.444864 8.654067 22.960163 9.377829 23.470636 C 9.357873 22.96488 9.34592 22.452324 9.34592 21.931761 C 9.34592 21.411198 9.356886 20.898972 9.376296 20.393763 Z M 18.393852 25.599163 C 17.966103 25.869148 17.527164 26.134455 17.07704 26.395084 C 16.626114 26.655422 16.176174 26.90139 15.728208 27.136944 C 16.532352 27.508587 17.317417 27.837679 18.071669 28.119291 C 18.204687 27.325123 18.313581 26.482046 18.393852 25.599384 Z M 19.623703 23.469543 C 20.347469 22.958849 21.023201 22.443111 21.644543 21.930557 C 21.023531 21.418217 20.345932 20.90292 19.622171 20.392447 C 19.642126 20.898422 19.654081 21.41098 19.654081 21.93154 C 19.654081 22.452103 19.643114 22.964552 19.623703 23.469761 Z M 14.5 34.981453 C 15.909476 34.981453 17.149857 32.667603 17.876911 29.15844 C 16.725168 28.753761 15.596901 28.285149 14.49737 27.754776 C 13.398993 28.284727 12.272063 28.753334 11.121775 29.15844 C 11.849047 32.66848 13.090302 34.981453 14.5 34.981453 Z M 13.2696 27.137161 C 12.822183 26.901903 12.373302 26.654617 11.922959 26.395306 C 11.472617 26.135994 11.033972 25.870905 10.607024 25.60004 C 10.687296 26.481501 10.793449 27.32666 10.927015 28.120058 C 11.680826 27.838665 12.466112 27.508476 13.2696 27.137161 Z M 3.222651 28.456608 C 3.927337 29.67725 6.526635 29.595991 9.92888 28.471413 C 9.704635 27.27243 9.547211 26.061914 9.457335 24.845463 C 8.448416 24.158487 7.478598 23.415766 6.552408 22.620762 C 3.877439 25.004908 2.517857 27.235966 3.222651 28.456608 Z M 3.222651 15.406914 C 2.51775 16.627773 3.876341 18.85927 6.551969 21.243855 C 7.477728 20.449059 8.447107 19.706522 9.455581 19.019707 C 9.546146 17.802731 9.70456 16.591761 9.930084 15.392441 C 6.527623 14.267643 3.927444 14.186167 3.222651 15.406914 Z M 14.5 8.882069 C 13.090524 8.882069 11.850144 11.195921 11.12309 14.705082 C 12.274831 15.10976 13.403099 15.578373 14.50263 16.108746 C 15.601007 15.578796 16.727938 15.110188 17.878225 14.705082 C 17.150953 11.195044 15.909698 8.882069 14.5 8.882069 Z M 15.7304 16.72636 C 16.177818 16.96162 16.626698 17.208904 17.07704 17.468218 C 17.527384 17.72753 17.966028 17.992617 18.392977 18.263483 C 18.312704 17.382023 18.206551 16.536863 18.072985 15.743465 C 17.319174 16.024857 16.533888 16.355045 15.7304 16.72636 Z M 25.777349 15.406914 C 25.072662 14.186274 22.473364 14.267532 19.071121 15.392109 C 19.295366 16.591091 19.452789 17.801609 19.542665 19.018061 C 20.551584 19.705036 21.521402 20.447756 22.447592 21.24276 C 25.122561 18.858614 26.482143 16.627556 25.777349 15.406914 Z M 14.5 23.576681 C 13.591537 23.576681 12.855081 22.840225 12.855081 21.931761 C 12.855081 21.023298 13.591537 20.286842 14.5 20.286842 C 15.408463 20.286842 16.14492 21.023298 16.14492 21.931761 C 16.14492 22.840225 15.408463 23.576681 14.5 23.576681 Z"/>
    <path id="rapidai" fill="#0f68b8" fill-rule="evenodd" stroke="#0f68b8" stroke-width="1.4" d="M 144.224762 29 L 142.491364 29 L 150.804352 22.310547 L 142.491364 15.547852 L 144.371246 15.547852 L 152.916168 22.310547 Z M 137.510895 29 L 135.777496 29 L 144.090485 22.310547 L 135.777496 15.547852 L 137.657379 15.547852 L 146.202301 22.310547 Z M 130.404999 29 L 130.404999 15.049999 L 131.927505 15.049999 L 131.927505 29 Z M 131.154999 11.8025 C 130.819992 11.8025 130.538757 11.68 130.311249 11.434999 C 130.083755 11.189999 129.970001 10.900002 129.970001 10.564999 C 129.970001 10.215 130.083755 9.925003 130.311249 9.695 C 130.538757 9.465 130.819992 9.349998 131.154999 9.349998 C 131.509995 9.349998 131.803741 9.465 132.036255 9.695 C 132.268753 9.925003 132.384995 10.215 132.384995 10.564999 C 132.384995 10.900002 132.268753 11.189999 132.036255 11.434999 C 131.803741 11.68 131.509995 11.8025 131.154999 11.8025 Z M 118.959999 29.299999 C 117.61499 29.299999 116.410004 28.981255 115.345001 28.34375 C 114.279991 27.706245 113.438751 26.841255 112.821251 25.748751 C 112.203751 24.656244 111.894997 23.425007 111.894997 22.055 C 111.894997 20.679993 112.203751 19.442505 112.821251 18.342501 C 113.438751 17.242495 114.276245 16.368753 115.333748 15.721251 C 116.391258 15.073748 117.584991 14.75 118.915001 14.75 C 119.985008 14.75 120.944992 14.954998 121.794998 15.365 C 122.645004 15.775002 123.346252 16.352497 123.898743 17.0975 C 124.451248 17.842505 124.809998 18.719995 124.975006 19.73 L 124.975006 24.297501 C 124.794998 25.307505 124.430008 26.188745 123.880005 26.94125 C 123.330002 27.693754 122.636261 28.274998 121.798752 28.685001 C 120.961243 29.095001 120.014999 29.299999 118.959999 29.299999 Z M 119.184998 27.8675 C 120.780014 27.8675 122.053741 27.333755 123.006256 26.266251 C 123.958755 25.198744 124.434998 23.792509 124.434998 22.047501 C 124.434998 20.872494 124.216248 19.846254 123.778748 18.96875 C 123.341248 18.091246 122.723755 17.407503 121.926254 16.9175 C 121.128738 16.427498 120.200012 16.182501 119.139999 16.182501 C 118.039993 16.182501 117.065002 16.434998 116.214996 16.940001 C 115.364998 17.445002 114.693756 18.136246 114.201248 19.01375 C 113.708748 19.891254 113.462502 20.894995 113.462502 22.025 C 113.462502 23.155006 113.708748 24.158745 114.201248 25.036249 C 114.693756 25.913754 115.372498 26.604998 116.237503 27.110001 C 117.102501 27.615002 118.084991 27.8675 119.184998 27.8675 Z M 124.360001 29 L 124.360001 25.264999 L 124.705002 21.8225 L 124.360001 18.455 L 124.360001 15.049999 L 125.882507 15.049999 L 125.882507 29 Z M 106.959999 29.299999 C 106.544998 29.299999 106.200005 29.1525 105.925003 28.8575 C 105.650002 28.562498 105.512497 28.217503 105.512497 27.8225 C 105.512497 27.407497 105.650002 27.061253 105.925003 26.783751 C 106.200005 26.506248 106.544998 26.3675 106.959999 26.3675 C 107.375 26.3675 107.720001 26.506248 107.995003 26.783751 C 108.270004 27.061253 108.407501 27.407497 108.407501 27.8225 C 108.407501 28.217503 108.270004 28.562498 107.995003 28.8575 C 107.720001 29.1525 107.375 29.299999 106.959999 29.299999 Z M 93.294998 29.299999 C 91.979996 29.299999 90.805161 28.981331 89.77047 28.343985 C 88.735779 27.706638 87.917038 26.841646 87.314217 25.748985 C 86.711403 24.656322 86.410004 23.424538 86.410004 22.053595 C 86.410004 20.662336 86.71125 19.417271 87.313751 18.318359 C 87.916252 17.219448 88.738274 16.350002 89.779846 15.709999 C 90.821411 15.069996 91.993118 14.75 93.294998 14.75 C 94.320007 14.75 95.268745 14.951248 96.141251 15.35375 C 97.013756 15.756252 97.748749 16.329996 98.346252 17.075001 C 98.943756 17.820004 99.324997 18.704994 99.489998 19.73 L 99.489998 24.297501 C 99.309998 25.292505 98.93 26.166246 98.349998 26.918751 C 97.769997 27.671253 97.046257 28.256248 96.178749 28.67375 C 95.311249 29.091251 94.350006 29.299999 93.294998 29.299999 Z M 93.565002 27.8675 C 94.625008 27.8675 95.557182 27.618362 96.361565 27.120079 C 97.165939 26.621794 97.794685 25.934301 98.24781 25.057579 C 98.700943 24.180855 98.927498 23.177505 98.927498 22.047501 C 98.927498 20.88562 98.696953 19.866646 98.235863 18.990547 C 97.774765 18.114449 97.138519 17.427423 96.32711 16.929453 C 95.515701 16.431482 94.573753 16.182501 93.501251 16.182501 C 92.428741 16.182501 91.478912 16.431717 90.651718 16.930157 C 89.824524 17.428596 89.172035 18.116245 88.694221 18.993126 C 88.2164 19.870005 87.977501 20.880619 87.977501 22.025 C 87.977501 23.155006 88.216011 24.162418 88.693047 25.047266 C 89.170082 25.932114 89.830696 26.623358 90.674919 27.121016 C 91.519142 27.618675 92.482498 27.8675 93.565002 27.8675 Z M 100.375 29 L 98.852501 29 L 98.852501 25.264999 L 99.220001 21.8225 L 98.852501 18.455 L 98.852501 7.939999 L 100.375 7.939999 Z M 81.220001 29 L 81.220001 15.049999 L 82.7425 15.049999 L 82.7425 29 Z M 81.970001 11.8025 C 81.635002 11.8025 81.353752 11.68 81.126251 11.434999 C 80.89875 11.189999 80.785004 10.900002 80.785004 10.564999 C 80.785004 10.215 80.89875 9.925003 81.126251 9.695 C 81.353752 9.465 81.635002 9.349998 81.970001 9.349998 C 82.325005 9.349998 82.618752 9.465 82.85125 9.695 C 83.083748 9.925003 83.199997 10.215 83.199997 10.564999 C 83.199997 10.900002 83.083748 11.189999 82.85125 11.434999 C 82.618752 11.68 82.325005 11.8025 81.970001 11.8025 Z M 70.690002 29.299999 C 69.634995 29.299999 68.673752 29.091251 67.806252 28.67375 C 66.938744 28.256248 66.215004 27.671253 65.635002 26.918751 C 65.055 26.166246 64.675003 25.292505 64.495003 24.297501 L 64.495003 19.73 C 64.675003 18.704994 65.059998 17.820004 65.650002 17.075001 C 66.240005 16.329996 66.972496 15.756252 67.847504 15.35375 C 68.722504 14.951248 69.669998 14.75 70.690002 14.75 C 72.005005 14.75 73.179993 15.069996 74.214996 15.709999 C 75.250008 16.350002 76.068748 17.219994 76.671249 18.32 C 77.27375 19.420006 77.574997 20.664993 77.574997 22.055 C 77.574997 23.425007 77.277504 24.656244 76.682503 25.748751 C 76.087494 26.841255 75.268753 27.706245 74.22625 28.34375 C 73.183746 28.981255 72.005005 29.299999 70.690002 29.299999 Z M 70.419998 27.8675 C 71.520004 27.8675 72.487495 27.618752 73.322502 27.12125 C 74.157501 26.623747 74.813751 25.932505 75.291252 25.047501 C 75.768753 24.162495 76.0075 23.155006 76.0075 22.025 C 76.0075 20.879993 75.768753 19.868755 75.291252 18.991249 C 74.813751 18.113745 74.161255 17.426252 73.333748 16.928749 C 72.506248 16.431248 71.557503 16.182501 70.487503 16.182501 C 69.417496 16.182501 68.475006 16.431248 67.660004 16.928749 C 66.844994 17.426252 66.207504 18.113745 65.747498 18.991249 C 65.287498 19.868755 65.057503 20.887495 65.057503 22.047501 C 65.057503 23.177505 65.283745 24.181246 65.736252 25.05875 C 66.188751 25.936255 66.818748 26.623747 67.626251 27.12125 C 68.433754 27.618752 69.364998 27.8675 70.419998 27.8675 Z M 63.610001 34.91 L 63.610001 15.049999 L 65.1325 15.049999 L 65.1325 18.5375 L 64.764999 21.9125 L 65.1325 25.3475 L 65.1325 34.91 Z M 52.172501 29.299999 C 50.827492 29.299999 49.622505 28.981255 48.557499 28.34375 C 47.492496 27.706245 46.651253 26.841255 46.033749 25.748751 C 45.416248 24.656244 45.107498 23.425007 45.107498 22.055 C 45.107498 20.679993 45.416248 19.442505 46.033749 18.342501 C 46.651253 17.242495 47.488743 16.368753 48.546249 15.721251 C 49.603756 15.073748 50.797493 14.75 52.127499 14.75 C 53.197506 14.75 54.157497 14.954998 55.0075 15.365 C 55.857506 15.775002 56.558746 16.352497 57.111252 17.0975 C 57.66375 17.842505 58.022499 18.719995 58.1875 19.73 L 58.1875 24.297501 C 58.0075 25.307505 57.642502 26.188745 57.092499 26.94125 C 56.542496 27.693754 55.848755 28.274998 55.01125 28.685001 C 54.173744 29.095001 53.227505 29.299999 52.172501 29.299999 Z M 52.397499 27.8675 C 53.992508 27.8675 55.266247 27.333755 56.21875 26.266251 C 57.171257 25.198744 57.647499 23.792509 57.647499 22.047501 C 57.647499 20.872494 57.428749 19.846254 56.991249 18.96875 C 56.553749 18.091246 55.936253 17.407503 55.138748 16.9175 C 54.341248 16.427498 53.412506 16.182501 52.352501 16.182501 C 51.252495 16.182501 50.277504 16.434998 49.427502 16.940001 C 48.577496 17.445002 47.906254 18.136246 47.41375 19.01375 C 46.921249 19.891254 46.674999 20.894995 46.674999 22.025 C 46.674999 23.155006 46.921249 24.158745 47.41375 25.036249 C 47.906254 25.913754 48.584995 26.604998 49.450001 27.110001 C 50.315002 27.615002 51.297493 27.8675 52.397499 27.8675 Z M 57.572502 29 L 57.572502 25.264999 L 57.917503 21.8225 L 57.572502 18.455 L 57.572502 15.049999 L 59.095001 15.049999 L 59.095001 29 Z M 32.830002 29 L 32.830002 14.6 L 36.130001 14.6 L 36.130001 29 Z M 36.130001 20.99 L 34.990002 20.42 C 34.990002 18.599991 35.394997 17.125006 36.205002 15.995001 C 37.015003 14.864994 38.23999 14.299999 39.880001 14.299999 C 40.600002 14.299999 41.249996 14.429998 41.830002 14.690001 C 42.410004 14.950001 42.949997 15.369997 43.450001 15.950001 L 41.290001 18.17 C 41.029999 17.889999 40.740002 17.690001 40.419998 17.57 C 40.099998 17.449999 39.730003 17.389999 39.310001 17.389999 C 38.389996 17.389999 37.630005 17.679996 37.029999 18.26 C 36.429996 18.840002 36.130001 19.749994 36.130001 20.99 Z"/>
</svg>
