<?xml version="1.0" encoding="UTF-8"?>
<!-- Generated by Pixelmator Pro 3.5.7 -->
<svg width="170" height="44" viewBox="0 0 170 44" xmlns="http://www.w3.org/2000/svg">
    <path id="Path-copy" fill="#00a6f4" stroke="none" d="M 8.807645 23.378584 L 20 10 L 18.648487 30.457088 L 17.105438 23.597158 L 8.807645 23.378584 Z"/>
    <path id="Path-copy-copy" fill="#00a6f4" stroke="none" d="M 27.132601 22.531311 L 16.175438 36.103191 L 17.16972 15.625631 L 18.832256 22.457586 L 27.132601 22.531311 Z"/>
    <path id="Picoverse-GPT" fill="#00a6f4" fill-rule="evenodd" stroke="#00a6f4" stroke-width="0.5" d="M 145.529999 29 L 145.529999 17.070499 L 146.479507 17.070499 L 146.479507 29 Z M 141.0345 17.587999 L 141.0345 16.724001 L 150.975006 16.724001 L 150.975006 17.587999 Z M 132.061493 23.924 L 132.061493 23.0825 L 135.953995 23.0825 C 136.510696 23.0825 137.006104 22.971033 137.440262 22.748095 C 137.87442 22.525156 138.216751 22.207533 138.467255 21.795219 C 138.717758 21.382904 138.843002 20.892504 138.843002 20.323999 C 138.843002 19.755497 138.717758 19.265097 138.467255 18.852781 C 138.216751 18.440466 137.87442 18.122845 137.440262 17.899906 C 137.006104 17.676968 136.510696 17.5655 135.953995 17.5655 L 132.061493 17.5655 L 132.061493 16.724001 L 136.048492 16.724001 C 136.768509 16.724001 137.409744 16.872499 137.972244 17.1695 C 138.53476 17.466501 138.981003 17.883966 139.311005 18.421906 C 139.641006 18.959846 139.806 19.59359 139.806 20.323156 C 139.806 21.052723 139.641006 21.686747 139.311005 22.22525 C 138.981003 22.763752 138.53476 23.181498 137.972244 23.4785 C 137.409744 23.775501 136.768509 23.924 136.048492 23.924 Z M 131.490005 29 L 131.490005 16.724001 L 132.439499 16.724001 L 132.439499 29 Z M 123.133499 29.1665 C 122.251495 29.1665 121.43325 29.007502 120.678749 28.689499 C 119.924248 28.371498 119.270256 27.929003 118.716751 27.362 C 118.163246 26.794996 117.73275 26.127504 117.425247 25.359501 C 117.117752 24.591496 116.963997 23.757505 116.963997 22.8575 C 116.963997 21.957495 117.119995 21.124254 117.431999 20.35775 C 117.744003 19.591246 118.179749 18.920002 118.73925 18.344 C 119.298752 17.767998 119.95575 17.321751 120.710251 17.005251 C 121.464752 16.688749 122.288994 16.5305 123.182999 16.5305 C 124.179008 16.5305 125.089493 16.729248 125.914497 17.126751 C 126.739502 17.524252 127.412994 18.090496 127.934998 18.8255 L 127.259995 19.5005 C 126.806992 18.837496 126.230255 18.329002 125.529747 17.975 C 124.829247 17.620998 124.047005 17.444 123.182999 17.444 C 122.165993 17.444 121.263 17.677998 120.473999 18.146 C 119.684998 18.614002 119.067749 19.255997 118.622253 20.072001 C 118.17675 20.888004 117.954002 21.820995 117.954002 22.871 C 117.954002 23.912004 118.175247 24.838997 118.617752 25.652 C 119.060249 26.465004 119.667747 27.101748 120.440247 27.56225 C 121.212753 28.022753 122.098495 28.253 123.097504 28.253 C 124.063507 28.253 124.901245 28.052752 125.610748 27.65225 C 126.320251 27.251747 126.870743 26.672005 127.262253 25.913 C 127.653748 25.153996 127.854004 24.245005 127.863007 23.186001 L 128.348999 23.555 L 122.926498 23.555 L 122.926498 22.691 L 128.843994 22.691 L 128.843994 22.844 C 128.843994 24.191008 128.606247 25.335495 128.130753 26.2775 C 127.655243 27.219505 126.989258 27.936497 126.132751 28.428501 C 125.276245 28.920502 124.276505 29.1665 123.133499 29.1665 Z M 107.370003 29.18 C 106.532997 29.18 105.783005 28.989502 105.120003 28.6085 C 104.456993 28.227497 103.933502 27.706253 103.5495 27.04475 C 103.165497 26.383247 102.973503 25.635504 102.973503 24.8015 C 102.973503 23.976496 103.160248 23.236254 103.533752 22.58075 C 103.907249 21.925247 104.419495 21.406252 105.070503 21.02375 C 105.721504 20.641249 106.451996 20.450001 107.262001 20.450001 C 108.021004 20.450001 108.691498 20.620249 109.273499 20.960751 C 109.855499 21.301252 110.312248 21.772997 110.643753 22.375999 C 110.97525 22.979004 111.140999 23.671995 111.140999 24.455 C 111.140999 24.527 111.136497 24.619999 111.127502 24.733999 C 111.1185 24.848001 111.100502 24.986 111.073502 25.148001 L 103.616997 25.148001 L 103.616997 24.3515 L 110.546997 24.3515 L 110.240997 24.608 C 110.271004 23.944996 110.164505 23.366003 109.921501 22.871 C 109.678497 22.375998 109.329002 21.989752 108.873001 21.71225 C 108.417 21.434748 107.872505 21.296 107.239502 21.296 C 106.573494 21.296 105.98925 21.442249 105.486748 21.734751 C 104.984245 22.027252 104.592751 22.431498 104.312248 22.9475 C 104.031746 23.463503 103.891502 24.067997 103.891502 24.761 C 103.891502 25.472004 104.03775 26.094498 104.330254 26.6285 C 104.622749 27.162502 105.0345 27.578749 105.565498 27.877251 C 106.096504 28.175751 106.714493 28.325001 107.419502 28.325001 C 107.962502 28.325001 108.463501 28.224501 108.922501 28.0235 C 109.3815 27.822498 109.769997 27.522503 110.087997 27.123501 L 110.686501 27.7265 C 110.302498 28.182503 109.821754 28.53875 109.244247 28.79525 C 108.666748 29.05175 108.042 29.18 107.370003 29.18 Z M 98.442001 29.18 C 97.988998 29.18 97.560753 29.117001 97.157249 28.991001 C 96.753746 28.865 96.388504 28.689501 96.061501 28.4645 C 95.734497 28.239498 95.446503 27.977001 95.197502 27.677 L 95.795998 27.065001 C 96.140999 27.503002 96.53775 27.827 96.986252 28.036999 C 97.434753 28.247002 97.927498 28.352001 98.4645 28.352001 C 99.088501 28.352001 99.582001 28.22525 99.945 27.97175 C 100.307999 27.718248 100.489502 27.366503 100.489502 26.9165 C 100.489502 26.508497 100.374748 26.187502 100.145248 25.953501 C 99.915749 25.7195 99.618752 25.535751 99.25425 25.40225 C 98.889748 25.268749 98.505005 25.143501 98.099998 25.026501 C 97.695 24.9095 97.310249 24.767 96.945747 24.599001 C 96.581245 24.431 96.284248 24.196251 96.054749 23.894751 C 95.825249 23.593248 95.710503 23.189003 95.710503 22.681999 C 95.710503 22.237997 95.823746 21.849503 96.050247 21.5165 C 96.276749 21.183498 96.597748 20.922501 97.013252 20.7335 C 97.428749 20.544498 97.921494 20.450001 98.491501 20.450001 C 99.106506 20.450001 99.665245 20.5595 100.167747 20.7785 C 100.67025 20.997501 101.07 21.316998 101.366997 21.737 L 100.768501 22.335501 C 100.525497 22.005499 100.2015 21.746752 99.796501 21.55925 C 99.391495 21.37175 98.938499 21.278 98.4375 21.278 C 97.834496 21.278 97.375504 21.405499 97.060501 21.6605 C 96.745499 21.915501 96.587997 22.237999 96.587997 22.628 C 96.587997 23.003002 96.702751 23.296999 96.932251 23.51 C 97.161751 23.723001 97.458748 23.890999 97.82325 24.014 C 98.187752 24.137001 98.572495 24.255499 98.977501 24.369499 C 99.3825 24.483501 99.76725 24.630499 100.131752 24.810499 C 100.496254 24.990501 100.793251 25.236498 101.022751 25.5485 C 101.252251 25.860502 101.366997 26.284998 101.366997 26.822001 C 101.366997 27.545004 101.102249 28.118748 100.572746 28.543251 C 100.043251 28.967752 99.333008 29.18 98.442001 29.18 Z M 89.117996 29 L 89.117996 20.629999 L 90.031502 20.629999 L 90.031502 29 Z M 90.031502 24.004999 L 89.577003 23.838499 C 89.577003 22.773495 89.847 21.942503 90.387001 21.345501 C 90.927002 20.748497 91.634995 20.450001 92.511002 20.450001 C 92.925003 20.450001 93.30825 20.523499 93.660751 20.6705 C 94.013252 20.817501 94.3395 21.051498 94.639503 21.372499 L 94.031998 22.016001 C 93.804001 21.766998 93.555748 21.588501 93.287247 21.480499 C 93.018745 21.372499 92.709 21.318501 92.358002 21.318501 C 91.670998 21.318501 91.111504 21.548748 90.679497 22.009251 C 90.247498 22.469751 90.031502 23.134996 90.031502 24.004999 Z M 83.25 29.18 C 82.412994 29.18 81.663002 28.989502 81 28.6085 C 80.336998 28.227497 79.813499 27.706253 79.429497 27.04475 C 79.045502 26.383247 78.8535 25.635504 78.8535 24.8015 C 78.8535 23.976496 79.040245 23.236254 79.41375 22.58075 C 79.787254 21.925247 80.2995 21.406252 80.9505 21.02375 C 81.601501 20.641249 82.331993 20.450001 83.141998 20.450001 C 83.901001 20.450001 84.571495 20.620249 85.153503 20.960751 C 85.735504 21.301252 86.192245 21.772997 86.52375 22.375999 C 86.855255 22.979004 87.021004 23.671995 87.021004 24.455 C 87.021004 24.527 87.016502 24.619999 87.0075 24.733999 C 86.998497 24.848001 86.980499 24.986 86.953499 25.148001 L 79.497002 25.148001 L 79.497002 24.3515 L 86.427002 24.3515 L 86.121002 24.608 C 86.151001 23.944996 86.044502 23.366003 85.801498 22.871 C 85.558502 22.375998 85.209 21.989752 84.752998 21.71225 C 84.296997 21.434748 83.752502 21.296 83.119499 21.296 C 82.453499 21.296 81.869255 21.442249 81.366753 21.734751 C 80.86425 22.027252 80.472748 22.431498 80.192253 22.9475 C 79.911751 23.463503 79.7715 24.067997 79.7715 24.761 C 79.7715 25.472004 79.917747 26.094498 80.210251 26.6285 C 80.502754 27.162502 80.914497 27.578749 81.445503 27.877251 C 81.976501 28.175751 82.594498 28.325001 83.2995 28.325001 C 83.842506 28.325001 84.343498 28.224501 84.802498 28.0235 C 85.261505 27.822498 85.650002 27.522503 85.968002 27.123501 L 86.566498 27.7265 C 86.182495 28.182503 85.701752 28.53875 85.124252 28.79525 C 84.546745 29.05175 83.922005 29.18 83.25 29.18 Z M 73.543503 29 L 69.641998 20.629999 L 70.650002 20.629999 L 74.101501 28.2215 L 73.547997 28.2215 L 77.017502 20.629999 L 78.002998 20.629999 L 74.074501 29 Z M 64.471497 29.18 C 63.658493 29.18 62.925751 28.985752 62.273247 28.59725 C 61.620747 28.208748 61.102501 27.681503 60.718498 27.015499 C 60.334499 26.349497 60.142502 25.605505 60.142502 24.783501 C 60.142502 23.970495 60.334499 23.237003 60.718498 22.583 C 61.102501 21.928997 61.620747 21.410002 62.273247 21.025999 C 62.925751 20.641998 63.658493 20.450001 64.471497 20.450001 C 65.278503 20.450001 66.008247 20.641249 66.660751 21.02375 C 67.313255 21.406252 67.831497 21.925247 68.2155 22.58075 C 68.599503 23.236254 68.791496 23.970495 68.791496 24.783501 C 68.791496 25.614504 68.599503 26.360746 68.2155 27.022249 C 67.831497 27.683754 67.313255 28.208748 66.660751 28.59725 C 66.008247 28.985752 65.278503 29.18 64.471497 29.18 Z M 64.471497 28.311501 C 65.116501 28.311501 65.693245 28.157751 66.201752 27.85025 C 66.710251 27.542749 67.112251 27.121252 67.407753 26.585751 C 67.703255 26.050247 67.850998 25.445004 67.850998 24.77 C 67.850998 24.112997 67.702499 23.525003 67.405502 23.006001 C 67.108498 22.486998 66.706505 22.076002 66.199501 21.773001 C 65.692497 21.469999 65.116501 21.318501 64.471497 21.318501 C 63.829498 21.318501 63.251999 21.469999 62.738998 21.773001 C 62.225998 22.076002 61.821751 22.486998 61.526249 23.006001 C 61.230747 23.525003 61.083 24.117496 61.083 24.783501 C 61.083 25.458504 61.230747 26.061497 61.526249 26.592501 C 61.821751 27.123503 62.225998 27.542749 62.738998 27.85025 C 63.251999 28.157751 63.829498 28.311501 64.471497 28.311501 Z M 55.755001 29.18 C 54.938995 29.18 54.204002 28.986502 53.549999 28.599499 C 52.895996 28.212498 52.37775 27.686003 51.995251 27.02 C 51.612747 26.353996 51.421501 25.610004 51.421501 24.788 C 51.421501 23.971996 51.612747 23.236254 51.995251 22.58075 C 52.37775 21.925247 52.895996 21.406252 53.549999 21.02375 C 54.204002 20.641249 54.938995 20.450001 55.755001 20.450001 C 56.373005 20.450001 56.950497 20.565498 57.487499 20.796499 C 58.024502 21.027502 58.483498 21.351498 58.864498 21.768499 L 58.257 22.380501 C 57.951 22.044498 57.582752 21.783501 57.152248 21.5975 C 56.721748 21.411499 56.256004 21.318501 55.755001 21.318501 C 55.109997 21.318501 54.531002 21.469999 54.018002 21.773001 C 53.504997 22.076002 53.10075 22.486998 52.805248 23.006001 C 52.50975 23.525003 52.362 24.118998 52.362 24.788 C 52.362 25.463003 52.50975 26.065247 52.805248 26.594749 C 53.10075 27.124252 53.504997 27.542749 54.018002 27.85025 C 54.531002 28.157751 55.109997 28.311501 55.755001 28.311501 C 56.265003 28.311501 56.737499 28.218502 57.172501 28.032501 C 57.607502 27.846498 57.982498 27.581001 58.297501 27.236 L 58.904999 27.848 C 58.514999 28.274002 58.047001 28.602499 57.500999 28.8335 C 56.954998 29.064501 56.373005 29.18 55.755001 29.18 Z M 48.3255 29 L 48.3255 20.629999 L 49.238998 20.629999 L 49.238998 29 Z M 48.775501 18.681499 C 48.574497 18.681499 48.40575 18.608 48.269249 18.461 C 48.132748 18.313999 48.064499 18.140001 48.064499 17.938999 C 48.064499 17.728998 48.132748 17.555 48.269249 17.417 C 48.40575 17.278999 48.574497 17.209999 48.775501 17.209999 C 48.988503 17.209999 49.164749 17.278999 49.304249 17.417 C 49.443752 17.555 49.5135 17.728998 49.5135 17.938999 C 49.5135 18.140001 49.443752 18.313999 49.304249 18.461 C 49.164749 18.608 48.988503 18.681499 48.775501 18.681499 Z M 38.25 23.924 L 38.25 23.0825 L 42.142502 23.0825 C 42.699192 23.0825 43.194607 22.971033 43.628765 22.748095 C 44.062923 22.525156 44.405251 22.207533 44.65575 21.795219 C 44.90625 21.382904 45.031502 20.892504 45.031502 20.323999 C 45.031502 19.755497 44.90625 19.265097 44.65575 18.852781 C 44.405251 18.440466 44.062923 18.122845 43.628765 17.899906 C 43.194607 17.676968 42.699192 17.5655 42.142502 17.5655 L 38.25 17.5655 L 38.25 16.724001 L 42.237 16.724001 C 42.957005 16.724001 43.598248 16.872499 44.160751 17.1695 C 44.723251 17.466501 45.169498 17.883966 45.4995 18.421906 C 45.829502 18.959846 45.994499 19.59359 45.994499 20.323156 C 45.994499 21.052723 45.829502 21.686747 45.4995 22.22525 C 45.169498 22.763752 44.723251 23.181498 44.160751 23.4785 C 43.598248 23.775501 42.957005 23.924 42.237 23.924 Z M 37.678501 29 L 37.678501 16.724001 L 38.627998 16.724001 L 38.627998 29 Z"/>
    <path id="by-nroxas" fill="#00a6f4" fill-rule="evenodd" stroke="#00a6f4" stroke-width="0.5" d="M 150.218994 36.060001 C 150.067993 36.060001 149.925247 36.039001 149.790756 35.997002 C 149.65625 35.955002 149.5345 35.8965 149.425507 35.821499 C 149.316498 35.746498 149.220505 35.659 149.137497 35.558998 L 149.337006 35.355 C 149.451996 35.500999 149.584244 35.609001 149.733749 35.679001 C 149.883255 35.749001 150.047501 35.784 150.226501 35.784 C 150.434494 35.784 150.598999 35.741753 150.720001 35.657249 C 150.841003 35.57275 150.901505 35.455502 150.901505 35.3055 C 150.901505 35.169498 150.863251 35.0625 150.786743 34.984501 C 150.710251 34.906502 150.611252 34.845249 150.489746 34.800751 C 150.368256 34.756248 150.240005 34.7145 150.104996 34.675499 C 149.970001 34.636497 149.841751 34.589001 149.720245 34.533001 C 149.598755 34.476997 149.499756 34.39875 149.423248 34.298248 C 149.346756 34.19775 149.308502 34.063 149.308502 33.894001 C 149.308502 33.745998 149.346252 33.616501 149.421753 33.505501 C 149.497253 33.394501 149.604248 33.307499 149.742752 33.244499 C 149.881256 33.181499 150.045502 33.150002 150.235504 33.150002 C 150.440506 33.150002 150.626755 33.186501 150.79425 33.259499 C 150.961746 33.3325 151.095001 33.438999 151.194 33.579002 L 150.994507 33.7785 C 150.913498 33.668499 150.805496 33.582253 150.670502 33.519749 C 150.535492 33.457249 150.384506 33.425999 150.217499 33.425999 C 150.016495 33.425999 149.863495 33.468498 149.758499 33.553501 C 149.653503 33.6385 149.600998 33.745998 149.600998 33.875999 C 149.600998 34.000999 149.639252 34.098999 149.715744 34.169998 C 149.792252 34.241001 149.891251 34.297001 150.012756 34.338001 C 150.134247 34.379002 150.262497 34.418499 150.397507 34.456501 C 150.532501 34.494499 150.660751 34.543499 150.782257 34.6035 C 150.903748 34.663498 151.002747 34.745499 151.079254 34.849499 C 151.155746 34.953499 151.194 35.095001 151.194 35.274002 C 151.194 35.514999 151.105743 35.706249 150.929245 35.847748 C 150.752747 35.98925 150.516006 36.060001 150.218994 36.060001 Z M 147.102005 36.060001 C 146.832993 36.060001 146.591995 35.99625 146.378998 35.868752 C 146.166 35.741249 145.997757 35.568253 145.874252 35.349751 C 145.750748 35.131248 145.688995 34.885002 145.688995 34.611 C 145.688995 34.335999 145.750748 34.088501 145.874252 33.8685 C 145.997757 33.648499 146.165253 33.473751 146.376755 33.34425 C 146.588257 33.214748 146.826996 33.150002 147.093002 33.150002 C 147.307007 33.150002 147.498993 33.191002 147.669006 33.272999 C 147.839005 33.355 147.979248 33.470497 148.089752 33.619499 C 148.200256 33.768501 148.272003 33.944 148.304993 34.146 L 148.304993 35.059502 C 148.268997 35.261501 148.195999 35.437748 148.085999 35.588249 C 147.975998 35.73875 147.83725 35.855 147.669754 35.937 C 147.502243 36.019001 147.313004 36.060001 147.102005 36.060001 Z M 147.147003 35.773499 C 147.466003 35.773499 147.720749 35.666752 147.911255 35.453251 C 148.101746 35.23975 148.197006 34.958504 148.197006 34.609501 C 148.197006 34.374496 148.153244 34.16925 148.06575 33.993752 C 147.978256 33.818249 147.854752 33.681499 147.695251 33.5835 C 147.535751 33.4855 147.350006 33.436501 147.138 33.436501 C 146.917999 33.436501 146.723007 33.487 146.552994 33.588001 C 146.382996 33.688999 146.248749 33.827248 146.150253 34.00275 C 146.051743 34.178253 146.002502 34.378998 146.002502 34.605 C 146.002502 34.831001 146.051743 35.03175 146.150253 35.207249 C 146.248749 35.382751 146.384506 35.521 146.557495 35.622002 C 146.730499 35.723 146.927002 35.773499 147.147003 35.773499 Z M 148.182007 36 L 148.182007 35.252998 L 148.251007 34.564499 L 148.182007 33.890999 L 148.182007 33.209999 L 148.486496 33.209999 L 148.486496 36 Z M 144.983994 36 L 143.980499 34.6875 L 143.910004 34.628998 L 142.766998 33.209999 L 143.1465 33.209999 L 144.095993 34.408501 L 144.164993 34.460999 L 145.362 36 Z M 142.717499 36 L 143.917496 34.485001 L 144.076508 34.716 L 143.085007 36 Z M 144.175507 34.625999 L 144.014999 34.405502 L 144.946503 33.209999 L 145.3125 33.209999 Z M 140.952011 36.060001 C 140.681 36.060001 140.436752 35.995251 140.219254 35.865749 C 140.001755 35.736248 139.82901 35.560501 139.701004 35.338501 C 139.572998 35.116501 139.509003 34.8685 139.509003 34.594498 C 139.509003 34.323498 139.572998 34.079002 139.701004 33.861 C 139.82901 33.642998 140.001755 33.470001 140.219254 33.341999 C 140.436752 33.214001 140.681 33.150002 140.952011 33.150002 C 141.221008 33.150002 141.464249 33.213749 141.681747 33.341251 C 141.899246 33.46875 142.072006 33.64175 142.199997 33.860252 C 142.328003 34.078751 142.391998 34.323498 142.391998 34.594498 C 142.391998 34.871502 142.328003 35.120247 142.199997 35.340752 C 142.072006 35.561249 141.899246 35.736248 141.681747 35.865749 C 141.464249 35.995251 141.221008 36.060001 140.952011 36.060001 Z M 140.952011 35.7705 C 141.167007 35.7705 141.359253 35.71925 141.528748 35.616749 C 141.698257 35.514252 141.832245 35.373749 141.930756 35.195251 C 142.029251 35.01675 142.078506 34.815002 142.078506 34.59 C 142.078506 34.370998 142.029007 34.175003 141.929993 34.001999 C 141.830994 33.828999 141.697006 33.692001 141.528 33.591 C 141.358994 33.489998 141.167007 33.439499 140.952011 33.439499 C 140.738007 33.439499 140.545502 33.489998 140.374496 33.591 C 140.203506 33.692001 140.068756 33.828999 139.970261 34.001999 C 139.87175 34.175003 139.82251 34.372498 139.82251 34.594498 C 139.82251 34.8195 139.87175 35.0205 139.970261 35.197502 C 140.068756 35.3745 140.203506 35.514252 140.374496 35.616749 C 140.545502 35.71925 140.738007 35.7705 140.952011 35.7705 Z M 137.45401 36 L 137.45401 33.209999 L 137.758499 33.209999 L 137.758499 36 Z M 137.758499 34.334999 L 137.60701 34.279499 C 137.60701 33.9245 137.697006 33.647499 137.876999 33.448502 C 138.057007 33.2495 138.292999 33.150002 138.585007 33.150002 C 138.723007 33.150002 138.850754 33.1745 138.968246 33.223499 C 139.085754 33.272499 139.194504 33.350498 139.29451 33.4575 L 139.09201 33.672001 C 139.016006 33.589001 138.933258 33.529499 138.84375 33.4935 C 138.754257 33.4575 138.651001 33.439499 138.533997 33.439499 C 138.305008 33.439499 138.1185 33.516251 137.974503 33.66975 C 137.830505 33.82325 137.758499 34.044998 137.758499 34.334999 Z M 136.306503 36 L 136.306503 34.347 C 136.306503 34.073997 136.226761 33.853001 136.067261 33.683998 C 135.907761 33.514999 135.696136 33.4305 135.432373 33.4305 C 135.252884 33.4305 135.094437 33.469749 134.957062 33.548248 C 134.819687 33.626751 134.711761 33.734001 134.633255 33.869999 C 134.554749 34.006001 134.515503 34.163498 134.515503 34.342499 L 134.356506 34.252499 C 134.356506 34.0415 134.406754 33.853249 134.507248 33.687752 C 134.607758 33.522247 134.744461 33.391251 134.917358 33.29475 C 135.090271 33.19825 135.285995 33.150002 135.504562 33.150002 C 135.72319 33.150002 135.915756 33.201248 136.08226 33.303749 C 136.248749 33.40625 136.37851 33.54525 136.471497 33.720749 C 136.564499 33.896252 136.611008 34.092999 136.611008 34.311001 L 136.611008 36 Z M 134.210999 36 L 134.210999 33.209999 L 134.515503 33.209999 L 134.515503 36 Z M 130.792511 36.0075 L 129.549011 33.209999 L 129.883499 33.209999 L 130.957504 35.688 L 130.801498 35.688 L 131.928009 33.209999 L 132.264008 33.209999 L 130.948502 36.0075 Z M 130.065002 37.181999 L 130.783508 35.704498 L 130.948502 36.0075 L 130.3965 37.181999 Z M 127.8675 36.060001 C 127.656502 36.060001 127.464249 36.01825 127.290749 35.93475 C 127.117249 35.85125 126.972504 35.734253 126.856499 35.583748 C 126.740501 35.43325 126.664497 35.258499 126.628502 35.059502 L 126.628502 34.146 C 126.664497 33.940998 126.741501 33.764 126.859497 33.614998 C 126.977501 33.466 127.124001 33.35125 127.299004 33.270752 C 127.473999 33.19025 127.663498 33.150002 127.8675 33.150002 C 128.130508 33.150002 128.365509 33.214001 128.57251 33.341999 C 128.77951 33.470001 128.943253 33.643997 129.063751 33.863998 C 129.18425 34.084 129.244507 34.333 129.244507 34.611 C 129.244507 34.885002 129.184998 35.131248 129.06601 35.349751 C 128.947006 35.568253 128.783249 35.741249 128.574753 35.868752 C 128.366257 35.99625 128.130508 36.060001 127.8675 36.060001 Z M 127.813499 35.773499 C 128.033508 35.773499 128.227005 35.723751 128.393997 35.624252 C 128.561005 35.52475 128.692261 35.386501 128.78775 35.209499 C 128.883255 35.032501 128.931 34.831001 128.931 34.605 C 128.931 34.375999 128.883255 34.173752 128.78775 33.998249 C 128.692261 33.82275 128.561752 33.685249 128.396255 33.585751 C 128.230759 33.486252 128.041 33.436501 127.827003 33.436501 C 127.612999 33.436501 127.4245 33.486252 127.261497 33.585751 C 127.098495 33.685249 126.971001 33.82275 126.878998 33.998249 C 126.787003 34.173752 126.740997 34.377499 126.740997 34.609501 C 126.740997 34.835503 126.786247 35.036247 126.876747 35.21175 C 126.967247 35.387253 127.093246 35.52475 127.254753 35.624252 C 127.416252 35.723751 127.602501 35.773499 127.813499 35.773499 Z M 126.4515 36 L 126.4515 31.788 L 126.755997 31.788 L 126.755997 33.890999 L 126.682503 34.564499 L 126.755997 35.252998 L 126.755997 36 Z"/>
    <path id="Circular-Outline-copy" fill="#00a6f4" fill-rule="evenodd" stroke="none" d="M 17.25 39 C 8.551528 39 1.5 31.948477 1.5 23.25 C 1.5 14.551523 8.551528 7.5 17.25 7.5 C 25.948471 7.5 33 14.551523 33 23.25 C 33 31.948477 25.948471 39 17.25 39 Z M 17.25 36.55814 C 24.599873 36.55814 30.55814 30.599873 30.55814 23.25 C 30.55814 15.900124 24.599873 9.94186 17.25 9.94186 C 9.900125 9.94186 3.94186 15.900124 3.94186 23.25 C 3.94186 30.599873 9.900125 36.55814 17.25 36.55814 Z"/>
</svg>
