<?xml version="1.0" encoding="UTF-8"?>
<!-- Generated by Pixelmator Pro 3.5.7 -->
<svg width="33" height="40" viewBox="0 0 33 40" xmlns="http://www.w3.org/2000/svg">
    <path id="Path" fill="#00a6f4" stroke="none" d="M 7.792 20.064783 L 18.01593 4.122345 L 18.147718 28.444973 L 16.106955 20.295744 L 7.792 20.064783 Z"/>
    <path id="Path-copy" fill="#00a6f4" stroke="none" d="M 23.703571 19.318872 L 14.016476 33.048424 L 14.221675 12.313566 L 16.0028 19.233854 L 23.703571 19.318872 Z"/>
    <path id="Circular-Outline" fill="#00a6f4" fill-rule="evenodd" stroke="none" d="M 16.75 35.5 C 7.775386 35.5 0.5 28.224619 0.5 19.25 C 0.5 10.275381 7.775386 3 16.75 3 C 25.724613 3 33 10.275381 33 19.25 C 33 28.224619 25.724613 35.5 16.75 35.5 Z M 16.75 32.980621 C 24.333202 32.980621 30.480621 26.833202 30.480621 19.25 C 30.480621 11.666794 24.333202 5.519379 16.75 5.519379 C 9.166796 5.519379 3.01938 11.666794 3.01938 19.25 C 3.01938 26.833202 9.166796 32.980621 16.75 32.980621 Z"/>
</svg>
